<svg xmlns="http://www.w3.org/2000/svg" class="ionicon" viewBox="0 0 512 512">

<g transform="translate(0.000000,512.000000) scale(0.100000,-0.100000)"
stroke="none">
<path d="M2410 5109 c-606 -57 -1145 -371 -1463 -854 -241 -365 -359 -836
-318 -1265 71 -739 472 -1479 1312 -2421 261 -293 468 -508 517 -536 65 -38
139 -38 204 0 69 40 475 476 757 813 908 1084 1233 1997 1010 2834 -159 597
-571 1061 -1144 1291 -275 110 -610 163 -875 138z m321 -944 c340 -59 632
-287 766 -597 64 -148 77 -213 77 -408 1 -208 -15 -283 -94 -445 -220 -454
-724 -679 -1205 -540 -378 110 -663 431 -725 818 -20 122 -8 331 25 442 148
505 646 820 1156 730z"/>
</g>
</svg>
